<svg width="65" height="65" viewBox="0 0 65 65" fill="none" xmlns="http://www.w3.org/2000/svg">
<path d="M63 32.5C63 49.3447 49.3447 63 32.5 63C15.6553 63 2 49.3447 2 32.5C2 15.6553 15.6553 2 32.5 2C43.1442 2 52.5149 7.45261 57.9713 15.717" stroke="#0075B1" stroke-width="4" stroke-linecap="round" stroke-linejoin="round"/>
<path d="M60 2V17H45V17" stroke="#0075B1" stroke-width="4" stroke-linecap="round" stroke-linejoin="round"/>
<path d="M26 43H17L24.9668 33.5925C25.6121 32.79 26 31.7599 26 30.6364C26 28.0758 23.9853 26 21.5 26C19.0147 26 17 28.0758 17 30.6364" stroke="#0075B1" stroke-width="4" stroke-linecap="round" stroke-linejoin="round"/>
<path d="M44.5 33V43" stroke="#0075B1" stroke-width="4" stroke-linecap="round" stroke-linejoin="round"/>
<path d="M48 39H34L38.6667 26" stroke="#0075B1" stroke-width="4" stroke-linecap="round" stroke-linejoin="round"/>
</svg>
