<svg width="29" height="26" viewBox="0 0 29 26" fill="none" xmlns="http://www.w3.org/2000/svg">
<path d="M27.1624 0.107999L0.620983 11.1162C-0.244499 11.4852 -0.1868 12.7766 0.678682 13.0841L7.42944 15.175L9.96819 23.6618C10.2567 24.5228 11.2953 24.8303 11.8723 24.1538L15.3342 20.3409L22.2003 25.6912C23.0658 26.3677 24.2198 25.8757 24.4506 24.7688L28.9511 1.70695C29.2396 0.599985 28.201 -0.322488 27.1624 0.107999ZM23.8736 5.21235L11.5261 16.8355C11.4107 16.9585 11.353 17.0815 11.2953 17.266L10.8337 21.7554C10.8337 21.8783 10.6029 21.9398 10.6029 21.7554L8.64112 15.0521C8.52572 14.7446 8.64112 14.4371 8.92961 14.2526L23.4697 4.65886C23.8159 4.41287 24.1621 4.90486 23.8736 5.21235Z" fill="#0075B1"/>
</svg>
