<svg width="26" height="26" viewBox="0 0 26 26" fill="none" xmlns="http://www.w3.org/2000/svg">
<path d="M21.2559 0H4.74408C2.1564 0 0 2.16152 0 4.75534V21.2447C0 23.9002 2.1564 26 4.74408 26H21.2559C23.9052 26 26 23.8385 26 21.2447V4.75534C26 2.16152 23.9052 0 21.2559 0ZM13 21.6152C8.25592 21.6152 4.43602 17.7862 4.43602 13.0309C4.43602 8.27553 8.25592 4.44656 13 4.44656C17.7441 4.44656 21.564 8.27553 21.564 13.0309C21.564 17.7862 17.7441 21.6152 13 21.6152ZM21.872 6.23753C20.763 6.23753 19.8389 5.31116 19.8389 4.19952C19.8389 3.08789 20.763 2.16152 21.872 2.16152C22.981 2.16152 23.9052 3.08789 23.9052 4.19952C23.9052 5.31116 22.981 6.23753 21.872 6.23753Z" fill="#0075B1"/>
<path d="M12.9993 7C9.69967 7 7 9.7 7 13C7 16.3 9.69967 19 12.9993 19C16.2988 19 18.9985 16.3 18.9985 13C19.0735 9.7 16.2988 7 12.9993 7Z" fill="#0075B1"/>
</svg>
