<svg width="11" height="11" viewBox="0 0 11 11" fill="none" xmlns="http://www.w3.org/2000/svg">
<path d="M8.99289 0H2.00711C0.912322 0 0 0.914489 0 2.01188V8.98812C0 10.1116 0.912322 11 2.00711 11H8.99289C10.1137 11 11 10.0855 11 8.98812V2.01188C11 0.914489 10.1137 0 8.99289 0ZM5.5 9.14489C3.49289 9.14489 1.87678 7.52494 1.87678 5.51306C1.87678 3.50119 3.49289 1.88124 5.5 1.88124C7.50711 1.88124 9.12322 3.50119 9.12322 5.51306C9.12322 7.52494 7.50711 9.14489 5.5 9.14489ZM9.25355 2.63896C8.78436 2.63896 8.39336 2.24703 8.39336 1.77672C8.39336 1.30641 8.78436 0.914489 9.25355 0.914489C9.72275 0.914489 10.1137 1.30641 10.1137 1.77672C10.1137 2.24703 9.72275 2.63896 9.25355 2.63896Z" fill="white"/>
<path d="M5.49969 3C4.12486 3 3 4.125 3 5.5C3 6.875 4.12486 8 5.49969 8C6.87452 8 7.99938 6.875 7.99938 5.5C8.03063 4.125 6.87452 3 5.49969 3Z" fill="white"/>
</svg>
