<svg width="72" height="72" viewBox="0 0 72 72" fill="none" xmlns="http://www.w3.org/2000/svg">
<path fill-rule="evenodd" clip-rule="evenodd" d="M32.5 70C49.3447 70 63 56.3447 63 39.5C63 22.6553 49.3447 9 32.5 9C15.6553 9 2 22.6553 2 39.5C2 56.3447 15.6553 70 32.5 70Z" stroke="#0075B1" stroke-width="4" stroke-linecap="round" stroke-linejoin="round"/>
<path fill-rule="evenodd" clip-rule="evenodd" d="M33 56C42.3888 56 50 48.3888 50 39C50 29.6112 42.3888 22 33 22C23.6112 22 16 29.6112 16 39C16 48.3888 23.6112 56 33 56Z" stroke="#0075B1" stroke-width="4" stroke-linecap="round" stroke-linejoin="round"/>
<path fill-rule="evenodd" clip-rule="evenodd" d="M32.5 46C36.0899 46 39 43.0899 39 39.5C39 35.9101 36.0899 33 32.5 33C28.9101 33 26 35.9101 26 39.5C26 43.0899 28.9101 46 32.5 46Z" fill="#0075B1"/>
<path d="M33 39L50 22" stroke="#0075B1" stroke-width="4" stroke-linecap="round" stroke-linejoin="round"/>
<path fill-rule="evenodd" clip-rule="evenodd" d="M59.8233 12.1767L56.7703 2L46 14.9753L47.9505 24.0495L57.0247 26L70 15.2297L59.8233 12.1767Z" fill="white" stroke="#0075B1" stroke-width="4" stroke-linecap="round" stroke-linejoin="round"/>
</svg>
