<svg width="13" height="11" viewBox="0 0 13 11" fill="none" xmlns="http://www.w3.org/2000/svg">
<path d="M12.1763 0.045692L0.278372 4.703C-0.109603 4.85911 -0.0837381 5.40549 0.304237 5.53559L3.33044 6.42021L4.4685 10.0108C4.59782 10.375 5.06339 10.5051 5.32204 10.2189L6.87394 8.60576L9.95188 10.8694C10.3399 11.1556 10.8572 10.9474 10.9606 10.4791L12.9781 0.722172C13.1074 0.25384 12.6418 -0.136437 12.1763 0.045692ZM10.702 2.20522L5.16685 7.12271C5.11512 7.17475 5.08926 7.22679 5.06339 7.30484L4.85647 9.20419C4.85647 9.25622 4.75301 9.28224 4.75301 9.20419L3.87361 6.36818C3.82188 6.23808 3.87361 6.10799 4.00293 6.02994L10.5209 1.97106C10.6761 1.86698 10.8313 2.07513 10.702 2.20522Z" fill="white"/>
</svg>
